<?xml version="1.0" encoding="UTF-8" standalone="no"?>
<svg width="406px" height="29px" viewBox="0 0 406 29" version="1.1" xmlns="http://www.w3.org/2000/svg" xmlns:xlink="http://www.w3.org/1999/xlink">
    <!-- Generator: Sketch 3.8.3 (29802) - http://www.bohemiancoding.com/sketch -->
    <title>Slice 1</title>
    <desc>Created with Sketch.</desc>
    <defs></defs>
    <g id="Page-1" stroke="none" stroke-width="1" fill="none" fill-rule="evenodd">
        <g id="media-classified" fill="#DA3849">
            <g id="Group">
                <polygon id="Shape" points="1 0.52 7.54 0.52 14.82 12.2 22.07 0.52 28.64 0.52 28.64 28.15 22.64 28.15 22.64 10.15 14.86 21.95 14.64 21.95 6.96 10.23 6.96 28.15 0.96 28.15 0.96 0.52"></polygon>
                <polygon id="Shape" points="35.25 0.52 56.1 0.52 56.1 5.93 41.3 5.93 41.3 11.54 54.3 11.54 54.3 16.95 41.3 16.95 41.3 22.76 56.3 22.76 56.3 28.16 35.3 28.16 35.3 0.52"></polygon>
                <path d="M61.72,0.52 L72.49,0.52 C81.17,0.52 87.16,6.52 87.16,14.26 L87.16,14.34 C87.16,22.11 81.16,28.15 72.49,28.15 L61.72,28.15 L61.72,0.52 L61.72,0.52 Z M72.49,22.67 C77.49,22.67 80.81,19.31 80.81,14.42 L80.81,14.34 C80.926059,12.0989398 80.0871752,9.91363153 78.5013361,8.32588636 C76.915497,6.73814119 74.731198,5.89663303 72.49,6.01 L67.79,6.01 L67.79,22.67 L72.49,22.67 L72.49,22.67 Z" id="Shape"></path>
                <polygon id="Shape" points="92.87 0.52 98.94 0.52 98.94 28.15 92.87 28.15 92.87 0.52"></polygon>
                <path d="M147.64,14.46 L147.64,14.34 C147.570517,10.5073121 149.070048,6.81264595 151.790979,4.11248615 C154.511909,1.41232635 158.217957,-0.0588500224 162.05,0.04 C167.26,0.04 170.39,1.78 172.95,4.3 L169.08,8.77 C167.226287,6.83935581 164.685629,5.71816028 162.01,5.65 C157.35,5.65 154.01,9.51 154.01,14.25 L154.01,14.33 C154.01,19.07 157.28,23.01 162.01,23.01 C165.17,23.01 167.1,21.75 169.28,19.78 L173.14,23.68 C170.317855,26.9778538 166.136574,28.7956418 161.8,28.61 C158.027381,28.6727777 154.390671,27.2024755 151.721715,24.5354044 C149.052759,21.8683333 147.579888,18.2326623 147.64,14.46 L147.64,14.46 Z" id="Shape"></path>
                <polygon id="Shape" points="178.02 0.52 184.11 0.52 184.11 22.63 197.89 22.63 197.89 28.15 178.02 28.15"></polygon>
                <path d="M231.74,24.13 L235.33,19.83 C237.604482,21.9123714 240.557062,23.0990882 243.64,23.17 C246.12,23.17 247.64,22.17 247.64,20.57 L247.64,20.46 C247.64,18.93 246.64,18.13 242.08,16.94 C236.51,15.53 232.91,13.94 232.91,8.5 L232.91,8.46 C232.91,3.46 236.91,0.13 242.6,0.13 C246.324304,0.070073082 249.952821,1.31140782 252.86,3.64 L249.64,8.22 C247.577118,6.59489821 245.070425,5.63266263 242.45,5.46 C240.12,5.46 238.89,6.52 238.89,7.87 L238.89,7.95 C238.89,9.77 240.07,10.36 244.89,11.58 C250.49,13.04 253.63,15.06 253.63,19.87 L253.63,19.95 C253.63,25.44 249.46,28.51 243.49,28.51 C239.16957,28.5355999 234.989473,26.9774022 231.74,24.13 L231.74,24.13 Z" id="Shape"></path>
                <path d="M257.02,24.13 L260.6,19.83 C262.859645,21.9056105 265.792921,23.0952566 268.86,23.18 C271.35,23.18 272.86,22.18 272.86,20.58 L272.86,20.46 C272.86,18.93 271.92,18.13 267.29,16.94 C261.71,15.53 258.13,13.94 258.13,8.5 L258.13,8.46 C258.13,3.46 262.13,0.13 267.8,0.13 C271.524304,0.070073082 275.152821,1.31140782 278.06,3.64 L274.91,8.21 C272.839565,6.59737123 270.329532,5.64913641 267.71,5.49 C265.38,5.49 264.15,6.55 264.15,7.9 L264.15,7.98 C264.15,9.8 265.34,10.39 270.15,11.61 C275.75,13.07 278.92,15.09 278.92,19.9 L278.92,19.98 C278.92,25.47 274.73,28.54 268.76,28.54 C264.438595,28.5576556 260.261045,26.9884058 257.02,24.13 L257.02,24.13 Z" id="Shape"></path>
                <polygon id="Shape" points="284.45 0.52 290.52 0.52 290.52 28.15 284.45 28.15"></polygon>
                <polygon id="Shape" points="297.45 0.52 318.45 0.52 318.45 6.05 303.45 6.05 303.45 11.93 316.64 11.93 316.64 17.46 303.52 17.46 303.52 28.16 297.45 28.16"></polygon>
                <polygon id="Shape" points="323.64 0.52 329.73 0.52 329.73 28.15 323.64 28.15"></polygon>
                <polygon id="Shape" points="336.64 0.52 357.49 0.52 357.49 5.93 342.64 5.93 342.64 11.54 355.64 11.54 355.64 16.95 342.64 16.95 342.64 22.76 357.64 22.76 357.64 28.16 336.64 28.16"></polygon>
                <path d="M363.06,0.52 L373.85,0.52 C382.51,0.52 388.52,6.52 388.52,14.26 L388.52,14.34 C388.52,22.11 382.52,28.15 373.85,28.15 L363.06,28.15 L363.06,0.52 L363.06,0.52 Z M373.85,22.67 C378.85,22.67 382.17,19.31 382.17,14.42 L382.17,14.34 C382.286059,12.0989398 381.447175,9.91363153 379.861336,8.32588636 C378.275497,6.73814119 376.091198,5.89663303 373.85,6.01 L369.12,6.01 L369.12,22.67 L373.85,22.67 L373.85,22.67 Z" id="Shape"></path>
                <polygon id="Shape" points="123.9 21.95 117.6 21.95 114.39 16.58 121.73 16.58 118.05 7.62 109.67 28.15 103.48 28.15 115.33 0.32 120.94 0.32 132.79 28.15 126.42 28.15"></polygon>
                <polygon id="Shape" points="220.71 21.95 214.42 21.95 211.21 16.58 218.54 16.58 214.88 7.62 206.5 28.15 200.29 28.15 212.15 0.32 217.75 0.32 229.6 28.15 223.24 28.15"></polygon>
            </g>
            <path d="M391.02,7.52 L391.02,7.52 C391.02,3.39443292 394.364433,0.05 398.49,0.05 C402.615567,0.05 405.96,3.39443292 405.96,7.52 L405.96,7.52 C405.96,11.6455671 402.615567,14.99 398.49,14.99 C394.364433,14.99 391.02,11.6455671 391.02,7.52 L391.02,7.52 Z M405.09,7.52 L405.09,7.52 C405.09,3.87492065 402.135079,0.92 398.49,0.92 C394.844921,0.92 391.89,3.87492065 391.89,7.52 L391.89,7.52 C391.906569,11.1650793 394.874921,14.1065685 398.52,14.09 C402.165079,14.0734315 405.106569,11.1050793 405.09,7.46 L405.09,7.52 Z M395.42,3.33 L398.95,3.33 C399.853719,3.27675908 400.740686,3.59044244 401.41,4.2 C401.854093,4.66824002 402.091839,5.2950272 402.07,5.94 L402.07,5.94 C402.118,7.04892436 401.417451,8.05263509 400.36,8.39 L402.3,11.24 L400.3,11.24 L398.61,8.68 L397.23,8.68 L397.23,11.24 L395.47,11.24 L395.47,3.29 L395.42,3.33 Z M398.93,7.21 C399.264771,7.26517187 399.607006,7.17230378 399.867968,6.95547512 C400.12893,6.73864647 400.282916,6.41921322 400.29,6.08 L400.29,6.08 C400.290849,5.72888371 400.133966,5.39594803 399.862649,5.17308003 C399.591331,4.95021202 399.234266,4.86097591 398.89,4.93 L397.18,4.93 L397.18,7.16 L398.93,7.16 L398.93,7.21 Z" id="Shape"></path>
        </g>
    </g>
</svg>