<?xml version="1.0" standalone="no"?>
<!DOCTYPE svg PUBLIC "-//W3C//DTD SVG 20010904//EN"
 "http://www.w3.org/TR/2001/REC-SVG-20010904/DTD/svg10.dtd">
<svg version="1.0" xmlns="http://www.w3.org/2000/svg"
 width="739.000000pt" height="1107.000000pt" viewBox="0 0 739.000000 1107.000000"
 preserveAspectRatio="xMidYMid meet">
<metadata>
Created by potrace 1.12, written by Peter Selinger 2001-2015
</metadata>
<g transform="translate(0.000000,1107.000000) scale(0.100000,-0.100000)"
fill="#000000" stroke="none">
<path d="M3903 8313 l2 -2758 23 -140 c12 -77 38 -205 58 -285 183 -738 672
-1398 1333 -1794 337 -202 677 -324 1076 -387 123 -19 193 -22 568 -26 l427
-5 0 575 0 575 -392 4 c-445 5 -518 14 -741 88 -621 207 -1062 722 -1178 1375
-19 104 -22 171 -26 503 l-5 382 1171 0 1171 0 0 575 0 575 -1170 0 -1170 0 0
1750 0 1750 -575 0 -575 0 3 -2757z"/>
<path d="M40 7575 l0 -575 1155 0 1155 0 0 -2108 c0 -1415 -3 -2135 -11 -2192
-81 -659 -501 -1197 -1119 -1436 -47 -18 -123 -42 -170 -54 -186 -48 -228 -52
-642 -57 l-398 -5 0 -575 0 -575 433 5 c372 4 450 7 562 25 627 99 1153 357
1584 777 276 268 453 513 620 854 129 264 201 497 258 831 16 99 18 273 20
2883 l3 2777 -1725 0 -1725 0 0 -575z"/>
</g>
</svg>
